<svg width="97" height="36" viewBox="0 0 97 36" fill="none" xmlns="http://www.w3.org/2000/svg">
<path fill-rule="evenodd" clip-rule="evenodd" d="M15.9163 1.12129C15.9155 1.12158 15.9147 1.12186 15.9139 1.12215C15.8538 1.14295 15.7763 1.17553 15.6811 1.22102C15.4912 1.31185 15.243 1.44836 14.9449 1.62822C14.3493 1.98753 13.5654 2.5133 12.6689 3.17524C10.876 4.49911 8.64089 6.36167 6.57096 8.51452C4.49957 10.6689 2.60228 13.105 1.47459 15.5753C0.347179 18.0451 -0.00125961 20.5255 0.98172 22.794C2.02463 25.2007 4.63793 26.7986 7.48979 27.1871C10.3378 27.5752 13.3704 26.7494 15.2422 24.3771L15.6468 23.8643L15.6037 24.5169L15.4013 24.5034C15.6037 24.5169 15.6037 24.5169 15.6037 24.5169L15.6036 24.5174L15.6036 24.5187L15.6032 24.5234L15.602 24.5413C15.6008 24.557 15.5991 24.58 15.5966 24.6101C15.5918 24.6702 15.5842 24.7583 15.5732 24.8711C15.5513 25.0966 15.5158 25.4211 15.4615 25.8184C15.353 26.6126 15.1691 27.6995 14.8674 28.8693C14.5659 30.0385 14.1454 31.2956 13.5618 32.4279C13.1444 33.2377 12.6405 33.9898 12.0319 34.6001C12.53 34.4843 13.1032 34.3988 13.6755 34.3801C14.4642 34.3542 15.2926 34.4537 15.9163 34.8127C16.54 34.4537 17.3685 34.3542 18.1572 34.3801C18.7294 34.3988 19.3027 34.4843 19.8008 34.6001C19.1922 33.9898 18.6883 33.2377 18.2709 32.4279C17.6873 31.2956 17.2668 30.0385 16.9653 28.8693C16.6636 27.6995 16.4797 26.6126 16.3712 25.8184C16.3169 25.4211 16.2814 25.0966 16.2595 24.8711C16.2485 24.7583 16.2409 24.6702 16.236 24.6101C16.2336 24.58 16.2319 24.557 16.2307 24.5413L16.2294 24.5234L16.2291 24.5187L16.229 24.5174C16.229 24.5174 16.229 24.5169 16.4314 24.5034L16.229 24.5169L16.1859 23.8643L16.5905 24.3771C18.4622 26.7494 21.4949 27.5752 24.3429 27.1871C27.1947 26.7986 29.808 25.2007 30.851 22.794C31.8339 20.5255 31.4855 18.0451 30.3581 15.5753C29.2304 13.105 27.3331 10.6689 25.2617 8.51452C23.1918 6.36167 20.9567 4.49911 19.1638 3.17524C18.2673 2.5133 17.4834 1.98753 16.8878 1.62822C16.5897 1.44836 16.3415 1.31185 16.1515 1.22102C16.0564 1.17553 15.9788 1.14295 15.9188 1.12215C15.918 1.12186 15.9172 1.12158 15.9163 1.12129Z" fill="white"/>
<path d="M64.3687 27.3457C64.3687 27.4923 64.2954 27.6977 64.1487 27.9617C64.0021 28.2257 63.8994 28.431 63.8407 28.5777C63.4594 29.2523 62.8727 29.9563 62.0807 30.6897C61.2887 31.423 60.5554 32.0243 59.8807 32.4937C58.5021 33.4617 57.0501 34.0923 55.5247 34.3857C53.9994 34.679 52.4154 34.8257 50.7727 34.8257C47.5754 34.8257 44.8474 34.1657 42.5887 32.8457C40.3301 31.4963 38.5994 29.6337 37.3967 27.2577C36.2234 24.8523 35.6367 22.0803 35.6367 18.9417C35.6367 15.8323 36.2087 13.031 37.3527 10.5377C38.4967 8.04434 40.1834 6.06434 42.4127 4.59767C44.6714 3.10167 47.4287 2.35367 50.6847 2.35367C52.1514 2.35367 53.3981 2.52967 54.4247 2.88167C55.4514 3.23367 56.6101 3.64434 57.9007 4.11367C58.5167 4.319 59.1327 4.48034 59.7487 4.59767C60.3647 4.68567 60.9954 4.759 61.6407 4.81767C61.6701 5.463 61.7141 6.123 61.7727 6.79767C61.8314 7.443 61.9047 8.103 61.9927 8.77767C62.0514 9.335 62.1541 9.907 62.3007 10.4937C62.4474 11.0803 62.5207 11.667 62.5207 12.2537C62.5207 12.811 62.3154 13.2217 61.9047 13.4857C61.5234 13.7497 61.0834 13.8817 60.5847 13.8817C59.7634 13.8817 59.1914 13.5443 58.8687 12.8697C58.7807 12.635 58.7221 12.3857 58.6927 12.1217C58.6634 11.8283 58.6194 11.579 58.5607 11.3737C58.3554 10.435 57.9887 9.423 57.4607 8.33767C56.9621 7.223 56.3607 6.343 55.6567 5.69767C55.0994 5.199 54.3367 4.759 53.3687 4.37767C52.4007 3.967 51.5354 3.76167 50.7727 3.76167C50.0394 3.76167 49.3501 3.923 48.7047 4.24567C48.0887 4.56834 47.4874 4.96434 46.9007 5.43367C45.6394 6.48967 44.6421 7.751 43.9087 9.21767C43.1754 10.6843 42.6621 12.2537 42.3687 13.9257C42.0754 15.5683 41.9287 17.1817 41.9287 18.7657C41.9287 19.8217 41.9874 20.8777 42.1047 21.9337C42.2514 22.9603 42.4714 23.987 42.7647 25.0137C43.1754 26.3923 43.7621 27.6977 44.5247 28.9297C45.3167 30.1323 46.2847 31.115 47.4287 31.8777C48.6021 32.611 49.9514 32.9777 51.4767 32.9777C53.6474 32.9777 55.6127 32.435 57.3727 31.3497C59.1621 30.2643 60.6434 28.8417 61.8167 27.0817C61.9927 26.7883 62.1687 26.539 62.3447 26.3337C62.5501 26.099 62.8434 25.9817 63.2247 25.9817C63.6061 25.9817 63.8847 26.1283 64.0607 26.4217C64.2661 26.715 64.3687 27.023 64.3687 27.3457ZM93.6115 27.1697C93.6115 27.639 93.5529 28.123 93.4356 28.6217C93.3476 29.091 93.2742 29.575 93.2156 30.0737C93.1569 30.631 93.0835 31.203 92.9955 31.7897C92.9369 32.3763 92.8782 32.963 92.8196 33.5497C92.7316 34.019 92.5996 34.3417 92.4236 34.5177C92.2475 34.6643 91.9102 34.7377 91.4116 34.7377C88.4195 34.7377 85.4275 34.723 82.4355 34.6937C79.4435 34.635 76.4515 34.6057 73.4595 34.6057C72.4329 34.6057 71.4062 34.6497 70.3795 34.7377C69.3529 34.855 68.3262 34.9137 67.2995 34.9137C66.8009 34.9137 66.5515 34.6643 66.5515 34.1657C66.5515 33.667 66.7715 33.4177 67.2115 33.4177C67.6515 33.3883 68.1209 33.3443 68.6195 33.2857C69.2062 33.227 69.6755 33.007 70.0275 32.6257C70.4089 32.215 70.5995 31.3937 70.5995 30.1617V6.44567C70.5995 5.97634 70.5115 5.52167 70.3355 5.08167C70.1889 4.64167 69.8222 4.42167 69.2355 4.42167C68.8835 4.42167 68.5315 4.43634 68.1795 4.46567C67.8275 4.46567 67.4755 4.46567 67.1235 4.46567C66.3902 4.46567 66.0235 4.11367 66.0235 3.40967C66.0235 3.05767 66.1409 2.83767 66.3755 2.74967C66.6102 2.63234 66.8742 2.57367 67.1675 2.57367C68.0182 2.57367 68.8542 2.603 69.6755 2.66167C70.4969 2.691 71.3182 2.70567 72.1395 2.70567C74.8969 2.70567 77.6542 2.691 80.4115 2.66167C83.1689 2.603 85.9262 2.57367 88.6835 2.57367C89.2115 2.57367 89.7395 2.559 90.2675 2.52967C90.7955 2.471 91.3235 2.41234 91.8516 2.35367C91.9102 2.823 91.9689 3.29234 92.0276 3.76167C92.1155 4.231 92.1889 4.70034 92.2476 5.16967C92.3355 5.727 92.4529 6.31367 92.5995 6.92967C92.7755 7.54567 92.8636 8.147 92.8636 8.73367C92.8636 9.08567 92.7169 9.379 92.4236 9.61367C92.1302 9.819 91.8222 9.92167 91.4995 9.92167C90.7955 9.92167 90.3262 9.61367 90.0915 8.99767C89.6515 7.619 88.9915 6.475 88.1115 5.56567C87.2609 4.627 86.0582 4.15767 84.5035 4.15767H76.5835V17.0937C77.6982 17.0937 78.7835 17.079 79.8395 17.0497C80.9249 17.0203 82.0102 16.9617 83.0955 16.8737C84.1809 16.7857 85.2222 16.6097 86.2195 16.3457C86.6302 16.2577 87.0555 16.1403 87.4955 15.9937C87.9649 15.847 88.4049 15.7737 88.8155 15.7737C89.1675 15.7737 89.3435 15.935 89.3435 16.2577C89.3435 16.463 89.2849 16.771 89.1676 17.1817C89.0795 17.5923 89.0062 17.9003 88.9476 18.1057C88.8009 18.487 88.6542 18.7217 88.5075 18.8097C88.3609 18.8683 88.0969 18.8977 87.7155 18.8977C87.0115 18.8977 86.3222 18.8537 85.6475 18.7657C84.5329 18.6483 83.4035 18.575 82.2595 18.5457C81.1155 18.487 79.9715 18.4577 78.8275 18.4577C78.1822 18.4577 77.6395 18.6337 77.1995 18.9857C76.7889 19.3083 76.5835 19.8217 76.5835 20.5257V31.3497C76.5835 32.0537 76.6715 32.5523 76.8475 32.8457C77.0529 33.139 77.5222 33.2857 78.2555 33.2857C79.0475 33.2857 79.9275 33.2857 80.8955 33.2857C81.8635 33.2857 82.8462 33.2417 83.8435 33.1537C84.8702 33.0657 85.8235 32.875 86.7035 32.5817C87.5835 32.2883 88.3169 31.8483 88.9035 31.2617C89.4022 30.763 89.8862 30.103 90.3555 29.2817C90.8249 28.4603 91.2062 27.727 91.4995 27.0817C91.6462 26.7297 91.7929 26.495 91.9395 26.3777C92.0862 26.231 92.3502 26.1577 92.7315 26.1577C93.0835 26.1577 93.3182 26.2457 93.4356 26.4217C93.5529 26.5977 93.6115 26.847 93.6115 27.1697Z" fill="white"/>
</svg>
