<svg width="53" height="46" viewBox="0 0 53 46" fill="none" xmlns="http://www.w3.org/2000/svg">
<path fill-rule="evenodd" clip-rule="evenodd" d="M19.1667 3.76344H22.9167V7.52688H19.1667V3.76344ZM11.6667 3.76344H15.4167V7.52688H11.6667V3.76344ZM4.16669 3.76344H7.91669V7.52688H4.16669V3.76344ZM49.1667 41.3979H4.16669V11.2903H49.1667V41.3979ZM49.1667 7.52688H26.6667V3.76344H49.1667V7.52688ZM52.9167 3.76344C52.9167 1.69355 51.2292 0 49.1667 0H4.16669C2.10419 0 0.416687 1.69355 0.416687 3.76344V41.3979C0.416687 43.4677 2.10419 45.1613 4.16669 45.1613H49.1667C51.2292 45.1613 52.9167 43.4677 52.9167 41.3979V3.76344Z" fill="#A1B9DC"/>
</svg>
