<svg width="43" height="59" viewBox="0 0 43 59" fill="none" xmlns="http://www.w3.org/2000/svg">
<path d="M35.8583 0H6.80817C3.37143 0 0.58313 2.44588 0.58313 5.46056V52.7854C0.58313 55.8001 3.37143 58.246 6.80817 58.246H35.8583C39.2951 58.246 42.0834 55.8001 42.0834 52.7854V5.46056C42.0834 2.44588 39.2951 0 35.8583 0ZM21.3333 54.6056C19.0378 54.6056 17.1832 52.9788 17.1832 50.9652C17.1832 48.9516 19.0378 47.3248 21.3333 47.3248C23.6287 47.3248 25.4833 48.9516 25.4833 50.9652C25.4833 52.9788 23.6287 54.6056 21.3333 54.6056ZM35.8583 42.3193C35.8583 43.0702 35.158 43.6845 34.3021 43.6845H8.36443C7.50848 43.6845 6.80817 43.0702 6.80817 42.3193V6.8257C6.80817 6.07487 7.50848 5.46056 8.36443 5.46056H34.3021C35.158 5.46056 35.8583 6.07487 35.8583 6.8257V42.3193Z" fill="#A1B9DC"/>
</svg>
