<svg width="52" height="51" viewBox="0 0 52 51" fill="none" xmlns="http://www.w3.org/2000/svg">
<path fill-rule="evenodd" clip-rule="evenodd" d="M45.2373 8.9857e-08C38.9027 -0.000533108 32.8071 2.37189 28.1966 6.63225L25.1828 9.42024C23.9381 10.5695 22.7488 11.7752 21.6189 13.0333H9.97721C9.27892 13.0336 8.5926 13.2112 7.98507 13.5489C7.37754 13.8865 6.86949 14.3726 6.51037 14.96L0.246933 25.1917C0.104671 25.4242 0.0212183 25.6868 0.00354388 25.9575C-0.0141305 26.2282 0.0344867 26.4991 0.145335 26.7475C0.256183 26.996 0.426045 27.2149 0.640735 27.3859C0.855424 27.5568 1.10871 27.6749 1.37944 27.7303L11.9441 29.9131C12.0342 30.0242 12.1336 30.1307 12.2422 30.2304L16.8508 34.4759L21.1774 38.9956C21.2791 39.1022 21.3878 39.1996 21.501 39.288L23.7267 49.6512C23.7838 49.9163 23.9047 50.1642 24.0792 50.3742C24.2538 50.5842 24.4771 50.7503 24.7303 50.8585C24.9836 50.9667 25.2596 51.014 25.5353 50.9964C25.811 50.9788 26.0785 50.8968 26.3153 50.7573L36.7482 44.6169C37.3471 44.2647 37.8428 43.7665 38.187 43.1707C38.5313 42.5749 38.7124 41.9018 38.7127 41.2169V29.7975C39.9972 28.6895 41.2281 27.5231 42.4015 26.3023L45.2397 23.3466C49.5835 18.8242 52.0018 12.8452 52 6.63225V3.96439C51.9994 2.91276 51.573 1.90441 50.8145 1.16101C50.0561 0.417603 49.0277 -8.18377e-08 47.9553 8.9857e-08H45.235H45.2373ZM35.2482 32.5538C34.4786 33.1159 33.6951 33.6576 32.8954 34.1812L25.0534 39.3084L26.6204 46.6139L34.9685 41.702C35.0538 41.6516 35.1244 41.5805 35.1734 41.4955C35.2224 41.4105 35.2481 41.3146 35.2482 41.2169V32.5538ZM11.9233 26.4338L17.1513 18.7385C17.6829 17.9542 18.2375 17.1858 18.8084 16.4333H9.97721C9.87766 16.4333 9.77982 16.4586 9.69316 16.5067C9.6065 16.5547 9.53398 16.6239 9.48261 16.7076L4.47417 24.8947L11.9233 26.4338ZM30.5749 9.10744C34.5418 5.44143 39.7867 3.39982 45.2373 3.39999H47.9577C48.1109 3.39999 48.2579 3.45969 48.3662 3.56596C48.4746 3.67223 48.5355 3.81637 48.5355 3.96666V6.63225C48.5374 11.979 46.4565 17.1246 42.7181 21.0165L39.8799 23.9699C37.2058 26.7541 34.2174 29.2309 30.9724 31.3524L23.3731 36.321L19.3446 32.1095C19.3193 32.083 19.2931 32.0573 19.266 32.0324L14.9695 28.0794L20.038 20.6221C22.2003 17.4422 24.7242 14.5138 27.5611 11.8932L30.5749 9.10744ZM38.715 16.4333C38.715 17.335 38.3498 18.1998 37.6996 18.8374C37.0495 19.4751 36.1677 19.8333 35.2482 19.8333C34.3287 19.8333 33.4469 19.4751 32.7968 18.8374C32.1466 18.1998 31.7814 17.335 31.7814 16.4333C31.7814 15.5316 32.1466 14.6668 32.7968 14.0291C33.4469 13.3915 34.3287 13.0333 35.2482 13.0333C36.1677 13.0333 37.0495 13.3915 37.6996 14.0291C38.3498 14.6668 38.715 15.5316 38.715 16.4333ZM13.2915 45.8999C15.3716 43.8599 15.3716 40.0066 13.2915 37.9666C11.2114 35.9266 7.28232 35.9266 5.20221 37.9666C2.40793 40.707 1.86248 46.8088 1.75848 48.7173C1.75336 48.7921 1.76462 48.8672 1.7915 48.9374C1.81838 49.0076 1.86026 49.0713 1.91433 49.1244C1.96839 49.1774 2.0334 49.2184 2.10498 49.2448C2.17656 49.2712 2.25306 49.2822 2.32935 49.2772C4.27541 49.1752 10.4972 48.6403 13.2915 45.8999Z" fill="#A1B9DC"/>
</svg>
