<svg width="90" height="98" viewBox="0 0 90 98" fill="none" xmlns="http://www.w3.org/2000/svg">
<path fill-rule="evenodd" clip-rule="evenodd" d="M45 0.218612C44.9976 0.219423 44.9953 0.220243 44.9929 0.22107C44.8194 0.281188 44.5952 0.375369 44.3203 0.506832C43.7712 0.769336 43.0539 1.16388 42.1923 1.68368C40.4711 2.72213 38.2055 4.24166 35.6146 6.15476C30.4328 9.98089 23.9731 15.3639 17.9908 21.5859C12.0043 27.8122 6.52087 34.8528 3.26173 41.9924C0.00338507 49.1303 -1.00364 56.299 1.83728 62.855C4.8514 69.8107 12.4042 74.4288 20.6463 75.5518C28.8773 76.6732 37.642 74.2867 43.0517 67.4304L44.2211 65.9484L44.0964 67.8344L43.5114 67.7955C44.0964 67.8344 44.0964 67.8344 44.0964 67.8344L44.0963 67.836L44.096 67.8397L44.0951 67.8532L44.0914 67.905C44.0881 67.9503 44.083 68.017 44.076 68.1039C44.062 68.2776 44.04 68.5322 44.0083 68.8582C43.9449 69.5101 43.8424 70.4479 43.6855 71.596C43.3719 73.8913 42.8404 77.0325 41.9684 80.4136C41.097 83.7925 39.8817 87.4258 38.1951 90.6983C36.9888 93.0387 35.5324 95.2123 33.7735 96.9763C35.2131 96.6415 36.8698 96.3945 38.5236 96.3402C40.8032 96.2654 43.1975 96.553 45 97.5905C46.8025 96.553 49.1968 96.2654 51.4764 96.3402C53.1302 96.3945 54.7869 96.6415 56.2265 96.9763C54.4676 95.2123 53.0112 93.0387 51.8049 90.6983C50.1183 87.4258 48.903 83.7925 48.0316 80.4136C47.1596 77.0325 46.6281 73.8913 46.3145 71.596C46.1576 70.4479 46.0551 69.5101 45.9917 68.8582C45.96 68.5322 45.938 68.2776 45.924 68.1039C45.917 68.017 45.9119 67.9503 45.9086 67.905L45.9049 67.8532L45.904 67.8397L45.9037 67.836C45.9037 67.836 45.9036 67.8344 46.4886 67.7955L45.9036 67.8344L45.7789 65.9484L46.9483 67.4304C52.358 74.2867 61.1227 76.6732 69.3537 75.5518C77.5958 74.4288 85.1486 69.8107 88.1627 62.855C91.0036 56.299 89.9966 49.1303 86.7383 41.9924C83.4791 34.8528 77.9957 27.8122 72.0092 21.5859C66.0268 15.3639 59.5672 9.98089 54.3854 6.15476C51.7945 4.24166 49.5289 2.72213 47.8077 1.68368C46.9461 1.16388 46.2288 0.769336 45.6797 0.506832C45.4047 0.375369 45.1806 0.281188 45.0071 0.22107C45.0047 0.220243 45.0024 0.219423 45 0.218612Z" fill="white"/>
</svg>
